<svg width="335" height="200" viewBox="0 0 335 200" fill="none" xmlns="http://www.w3.org/2000/svg">
<g clip-path="url(#clip0_23_1161)">
<path d="M256.121 197.738C251.838 194.119 249.237 188.402 249.919 182.837C250.601 177.272 254.827 172.155 260.308 170.973C265.789 169.792 272.037 173.063 273.702 178.417C274.618 168.095 275.674 157.339 281.162 148.548C286.132 140.589 294.739 134.893 304.067 133.874C313.396 132.855 323.217 136.704 329.035 144.066C334.852 151.429 336.277 162.133 332.202 170.586C329.201 176.813 323.671 181.447 317.877 185.217C299.154 197.297 276.699 202.21 254.642 199.051L256.121 197.738Z" fill="#F2F2F2"/>
<path d="M319.81 136.917C312.113 143.186 305.052 150.198 298.729 157.851C288.833 169.786 280.825 183.168 274.984 197.53C274.557 198.578 276.258 199.034 276.681 197.998C286.237 174.657 301.494 154.084 321.054 138.161C321.933 137.446 320.681 136.208 319.81 136.917Z" fill="white"/>
<path d="M107.689 196.755C113.572 191.784 117.145 183.932 116.208 176.288C115.271 168.644 109.467 161.617 101.939 159.993C94.4105 158.37 85.8287 162.864 83.5421 170.218C82.2837 156.039 80.8335 141.267 73.2954 129.193C66.4699 118.26 54.6479 110.437 41.8355 109.037C29.0231 107.638 15.5333 112.924 7.54263 123.036C-0.447995 133.149 -2.40446 147.851 3.19196 159.461C7.31465 168.014 14.9101 174.379 22.8682 179.557C48.2574 196.078 79.7527 202.968 109.721 198.558" fill="#F2F2F2"/>
<path d="M20.2126 113.217C30.7844 121.828 40.4829 131.458 49.1679 141.969C57.8542 152.47 65.5016 163.788 72.0026 175.764C75.6364 182.483 78.9007 189.395 81.7809 196.469C82.3682 197.908 80.0314 198.534 79.4507 197.111C74.349 184.639 68.0373 172.697 60.6061 161.457C53.2109 150.257 44.7468 139.8 35.3325 130.235C30.0078 124.827 24.3897 119.716 18.5038 114.926C17.2974 113.943 19.0161 112.242 20.2126 113.217L20.2126 113.217Z" fill="white"/>
<path d="M240.128 199.562H99.7811V55.5621C99.7811 24.925 124.706 0 155.343 0H184.566C215.203 0 240.128 24.925 240.128 55.5621V199.562Z" fill="#F2F2F2"/>
<path d="M210.905 199.562H99.7811V55.5621C99.7504 43.8227 103.468 32.38 110.392 22.8999C110.647 22.552 110.902 22.2086 111.164 21.869C114.514 17.4764 118.499 13.6078 122.99 10.3911C123.243 10.2065 123.498 10.0252 123.757 9.84379C127.514 7.24348 131.579 5.11779 135.858 3.51509C136.112 3.41877 136.371 3.32227 136.63 3.2297C140.5 1.84856 144.512 0.902485 148.591 0.408945C148.844 0.374396 149.104 0.347362 149.363 0.320326C153.339 -0.104741 157.348 -0.104741 161.324 0.320326C161.583 0.347362 161.842 0.374393 162.098 0.409314C166.177 0.902887 170.188 1.84885 174.057 3.22972C174.316 3.32228 174.574 3.41878 174.829 3.51529C179.056 5.09777 183.072 7.19175 186.79 9.75048C187.048 9.92791 187.307 10.1093 187.561 10.2906C190.079 12.0874 192.443 14.089 194.63 16.2752C196.384 18.0287 198.019 19.8979 199.523 21.8702C199.785 22.2087 200.039 22.5521 200.294 22.8994C207.218 32.3795 210.936 43.8225 210.905 55.5621V199.562Z" fill="#CCCCCC"/>
<path d="M201.869 135.156C205.267 135.156 208.021 132.402 208.021 129.004C208.021 125.606 205.267 122.852 201.869 122.852C198.471 122.852 195.717 125.606 195.717 129.004C195.717 132.402 198.471 135.156 201.869 135.156Z" fill="#6C63FF"/>
<path d="M228.631 195.249H223.917L221.674 177.066L228.632 177.067L228.631 195.249Z" fill="#FFB8B8"/>
<path d="M220.55 193.902H229.641V199.626H214.825C214.825 198.875 214.973 198.13 215.261 197.436C215.549 196.741 215.97 196.11 216.502 195.579C217.034 195.047 217.665 194.625 218.359 194.338C219.054 194.05 219.798 193.902 220.55 193.902Z" fill="#2F2E41"/>
<path d="M252.086 195.249H247.372L245.129 177.066L252.087 177.067L252.086 195.249Z" fill="#FFB8B8"/>
<path d="M244.005 193.902H253.096V199.626H238.281C238.281 198.875 238.429 198.13 238.716 197.436C239.004 196.741 239.426 196.11 239.957 195.579C240.489 195.047 241.12 194.625 241.814 194.338C242.509 194.05 243.253 193.902 244.005 193.902Z" fill="#2F2E41"/>
<path d="M204.983 130.223C204.644 129.723 204.418 129.155 204.322 128.559C204.227 127.963 204.263 127.353 204.428 126.772C204.593 126.191 204.884 125.654 205.279 125.197C205.675 124.741 206.166 124.377 206.717 124.131L222.742 79.9633L230.627 84.2665L212.33 126.475C212.682 127.429 212.672 128.478 212.302 129.425C211.932 130.372 211.227 131.15 210.321 131.612C209.416 132.074 208.372 132.188 207.388 131.932C206.404 131.676 205.548 131.068 204.983 130.223Z" fill="#FFB8B8"/>
<path d="M249.678 138.522C249.154 138.222 248.703 137.81 248.355 137.316C248.007 136.823 247.772 136.259 247.666 135.664C247.56 135.07 247.586 134.459 247.741 133.876C247.897 133.292 248.178 132.75 248.566 132.287L243.602 85.5647L252.575 85.9747L254.638 131.932C255.373 132.635 255.824 133.583 255.907 134.596C255.989 135.609 255.697 136.618 255.085 137.43C254.474 138.242 253.586 138.802 252.589 139.004C251.593 139.205 250.557 139.034 249.678 138.522Z" fill="#FFB8B8"/>
<path d="M235.363 71.7822C240.578 71.7822 244.807 67.554 244.807 62.3382C244.807 57.1224 240.578 52.8942 235.363 52.8942C230.147 52.8942 225.919 57.1224 225.919 62.3382C225.919 67.554 230.147 71.7822 235.363 71.7822Z" fill="#FFB8B8"/>
<path d="M249.618 127.896H221.146L221.18 127.675C221.231 127.343 226.255 94.4377 222.55 83.6725C222.178 82.6146 222.211 81.4566 222.642 80.4213C223.072 79.3861 223.871 78.5468 224.883 78.065H224.884C230.179 75.5713 240.344 72.5006 248.923 79.9526C250.186 81.0672 251.172 82.4603 251.803 84.0217C252.434 85.583 252.694 87.2698 252.561 88.9487L249.618 127.896Z" fill="#6C63FF"/>
<path d="M226.614 99.3007L213.796 96.7002L219.804 82.4617C220.164 81.0827 221.056 79.9025 222.284 79.1801C223.513 78.4577 224.978 78.2521 226.358 78.6084C227.738 78.9646 228.92 79.8536 229.645 81.0804C230.371 82.3072 230.58 83.7716 230.227 85.1524L226.614 99.3007Z" fill="#6C63FF"/>
<path d="M243.032 104.129L242.261 86.4641C241.677 83.1434 243.578 80.0042 246.501 79.4911C249.426 78.9798 252.281 81.283 252.868 84.6281L255.765 101.134L243.032 104.129Z" fill="#6C63FF"/>
<path d="M248.671 125.781C253.252 143.229 253.752 165.413 252.516 189.611L246.364 188.841L235.213 142.7L229.061 189.611L222.139 189.226C220.072 163.837 218.058 142.04 221.37 127.704L248.671 125.781Z" fill="#2F2E41"/>
<path d="M241.585 69.6368C239.823 71.5135 236.551 70.5061 236.322 67.9422C236.304 67.7432 236.305 67.5428 236.326 67.344C236.444 66.2083 237.1 65.1773 236.943 63.9781C236.908 63.6797 236.797 63.3953 236.62 63.1519C235.216 61.2719 231.921 63.9928 230.596 62.2908C229.783 61.2473 230.738 59.6042 230.115 58.4378C229.292 56.8984 226.855 57.6578 225.326 56.8147C223.625 55.8767 223.727 53.2675 224.847 51.6804C226.212 49.745 228.606 48.7122 230.969 48.5633C233.333 48.4145 235.681 49.0535 237.888 49.9135C240.395 50.8907 242.882 52.2412 244.425 54.446C246.301 57.1273 246.482 60.732 245.543 63.8672C244.972 65.7744 243.024 68.1043 241.585 69.6368Z" fill="#2F2E41"/>
<path d="M322.984 199.81H39.1002C38.979 199.809 38.8629 199.761 38.7773 199.675C38.6917 199.589 38.6437 199.473 38.6437 199.352C38.6437 199.231 38.6917 199.114 38.7773 199.028C38.8629 198.943 38.979 198.894 39.1002 198.894H322.984C323.105 198.894 323.221 198.943 323.307 199.028C323.392 199.114 323.44 199.231 323.44 199.352C323.44 199.473 323.392 199.589 323.307 199.675C323.221 199.761 323.105 199.809 322.984 199.81Z" fill="#3F3D56"/>
<path d="M180.337 157.843H130.35C129.692 157.846 129.059 157.588 128.59 157.126C128.122 156.663 127.856 156.034 127.851 155.376V43.8019C127.856 43.1436 128.122 42.5142 128.59 42.0517C129.059 41.5893 129.692 41.3316 130.35 41.3351H180.337C180.995 41.3316 181.628 41.5893 182.096 42.0517C182.565 42.5142 182.831 43.1436 182.836 43.8019V155.376C182.831 156.034 182.565 156.663 182.096 157.126C181.628 157.588 180.995 157.846 180.337 157.843Z" fill="white"/>
<path d="M182.836 77.4369H127.851V78.2059H182.836V77.4369Z" fill="#CCCCCC"/>
<path d="M183.028 121.314H128.043V122.083H183.028V121.314Z" fill="#CCCCCC"/>
<path d="M145.923 41.3351H145.154V158.227H145.923V41.3351Z" fill="#CCCCCC"/>
<path d="M165.148 41.3351H164.379V158.227H165.148V41.3351Z" fill="#CCCCCC"/>
</g>
<defs>
<clipPath id="clip0_23_1161">
<rect width="334.526" height="200" fill="white"/>
</clipPath>
</defs>
</svg>
