<svg width="200" height="200" viewBox="0 0 200 200" fill="none" xmlns="http://www.w3.org/2000/svg">
<g clip-path="url(#clip0_50_356)">
<path d="M101.789 130.558C119.718 130.558 134.251 116.024 134.251 98.0956C134.251 80.1673 119.718 65.6335 101.789 65.6335C83.8611 65.6335 69.3274 80.1673 69.3274 98.0956C69.3274 116.024 83.8611 130.558 101.789 130.558Z" fill="#FFB6B6"/>
<path d="M83.154 135.358L81.6875 120.533L110.974 115.057L128.267 157.162L98.1916 191.749L76.7631 149.644L83.154 135.358Z" fill="#FFB6B6"/>
<path d="M81.2171 127.954L87.6198 129.4C87.6198 129.4 82.5866 113.44 84.295 111.916C86.0034 110.393 90.1898 112.794 90.1898 112.794L94.589 117.726L99.9476 112.27C99.9476 112.27 105.765 105.036 108.043 103.005C110.321 100.973 106.662 93.4317 106.662 93.4317C106.662 93.4317 140.456 84.3193 127.881 67.9281C127.881 67.9281 120.509 55.0768 118.108 59.2632C115.707 63.4496 112.844 56.8007 112.844 56.8007L104.102 58.4631C104.102 58.4631 86.8487 48.29 70.4731 70.0532C54.0975 91.8164 81.2171 127.954 81.2171 127.954H81.2171V127.954Z" fill="#2F2E41"/>
<path d="M162.842 177.801C145.102 192.184 123.154 200 100 200C78.8572 200 58.7181 193.481 41.8722 181.398C41.9023 181.083 41.9324 180.771 41.9587 180.459C42.406 175.571 42.8045 170.82 43.0677 166.88C44.0865 151.583 79.7744 141.387 79.7744 141.387C79.7744 141.387 79.9361 141.549 80.2594 141.831C82.2293 143.56 90.2256 149.831 104.248 151.583C116.752 153.147 120.868 145.729 122.113 142.177C122.489 141.094 122.602 140.368 122.602 140.368L159.308 157.703C161.703 161.124 162.639 168.492 162.823 176.774C162.831 177.117 162.838 177.455 162.842 177.801Z" fill="#6C63FF"/>
<path d="M170.711 29.2895C151.823 10.4022 126.711 0 100 0C73.2895 0 48.1767 10.4022 29.2895 29.2895C10.4023 48.1767 0 73.2895 0 100C0 124.38 8.66543 147.429 24.5451 165.628C26.0602 167.368 27.6429 169.064 29.2895 170.711C29.6767 171.098 30.0677 171.485 30.4624 171.861C31.515 172.88 32.5865 173.876 33.6767 174.842C34.3384 175.432 35.0075 176.011 35.6842 176.579C36.2143 177.026 36.7444 177.466 37.282 177.898C37.2932 177.91 37.3008 177.917 37.312 177.925C38.8045 179.128 40.3233 180.286 41.8722 181.398C58.7181 193.481 78.8571 200 100 200C123.154 200 145.102 192.184 162.842 177.801C164.289 176.628 165.707 175.41 167.098 174.15C168.327 173.038 169.53 171.891 170.711 170.711C171.083 170.338 171.455 169.962 171.82 169.583C172.835 168.538 173.82 167.474 174.782 166.395C191.086 148.079 200 124.726 200 100C200 73.2895 189.598 48.1767 170.711 29.2895V29.2895ZM174.538 165.459C173.598 166.526 172.635 167.579 171.65 168.605C170.117 170.203 168.534 171.752 166.898 173.244C166.278 173.816 165.65 174.372 165.015 174.925C164.293 175.553 163.564 176.169 162.823 176.774C156.985 181.568 150.59 185.703 143.752 189.071C141.049 190.406 138.278 191.62 135.444 192.707C124.432 196.932 112.481 199.248 100 199.248C87.9549 199.248 76.406 197.09 65.718 193.143C61.3308 191.526 57.0902 189.605 53.0188 187.406C52.4211 187.083 51.8271 186.756 51.2369 186.421C48.1316 184.662 45.1278 182.741 42.2444 180.665C42.1504 180.598 42.0527 180.526 41.9587 180.459C39.906 178.977 37.9098 177.417 35.9812 175.778C35.2744 175.18 34.5752 174.575 33.8872 173.955C32.7669 172.959 31.6692 171.932 30.5978 170.88C28.5677 168.891 26.6278 166.82 24.7744 164.665C9.80828 147.282 0.75188 124.68 0.75188 100C0.75188 45.2744 45.2745 0.75188 100 0.75188C154.726 0.75188 199.248 45.2744 199.248 100C199.248 125.06 189.914 147.977 174.538 165.459Z" fill="#3F3D56"/>
</g>
<defs>
<clipPath id="clip0_50_356">
<rect width="200" height="200" fill="white"/>
</clipPath>
</defs>
</svg>
