<svg width="174" height="250" viewBox="0 0 174 250" fill="none" xmlns="http://www.w3.org/2000/svg">
<g clip-path="url(#clip0_23_884)">
<path d="M3.94641 70.1859C6.11367 68.2293 8.90297 72.5414 7.38564 75.2261C5.85185 77.9399 2.49863 77.1706 1.34399 74.3996C-0.129239 70.8641 1.33784 66.6584 3.71208 64.6059C6.40913 62.2744 9.71456 62.1432 12.8287 62.3617C15.9742 62.5824 19.0437 62.8753 22.1773 62.2802C24.8299 61.7676 27.4217 60.8082 29.8893 59.4254C34.963 56.6122 39.418 52.1575 42.8433 46.4724C44.4417 43.7958 45.9355 40.7875 46.8504 37.5833C47.5552 35.1152 47.889 31.8693 46.8904 29.4535C46.6732 28.91 46.3671 28.4371 45.9942 28.0692C45.6213 27.7014 45.191 27.4477 44.7345 27.3267C44.2781 27.2057 43.807 27.2203 43.3553 27.3696C42.9037 27.5189 42.483 27.799 42.1236 28.1896C40.4594 29.9893 40.0099 33.3309 41.2824 35.6594C42.6478 38.158 45.2243 39.0145 47.4425 38.5596C50.5255 37.9273 53.022 35.0546 55.3822 32.5813L72.8617 14.2643C75.744 11.2439 78.5968 8.165 81.5163 5.20739C83.8904 2.80223 86.7874 0.470136 89.8795 1.7548C91.126 2.27266 92.3822 3.49902 92.6937 5.26096C92.8102 6.06776 92.7576 6.9012 92.5416 7.67144C92.3256 8.44167 91.9544 9.11948 91.468 9.63177C91.2458 9.88081 90.9869 10.0662 90.7076 10.176C90.4282 10.2859 90.1346 10.318 89.8454 10.2701C89.5562 10.2222 89.2777 10.0955 89.0276 9.89803C88.7775 9.70052 88.5612 9.43652 88.3925 9.1228C87.7409 7.92322 87.6872 6.21295 88.0625 4.85749C89.0655 1.235 92.746 0.855999 95.202 1.15062C98.1 1.53822 100.899 2.75433 103.405 4.71437C108.596 8.69354 112.434 15.1666 114.686 22.4435C117.18 30.5063 117.949 39.4283 117.847 48.0838C117.826 49.8492 117.734 51.8019 116.981 53.324C116.244 54.8148 114.957 55.266 113.804 54.2691C113.428 53.9444 112.945 53.3119 113.043 52.6448C113.166 51.8072 114.43 51.8008 114.937 51.8328C116.323 51.9205 117.634 52.8429 118.627 54.0864C120.987 57.0418 121.17 61.5638 120.863 65.5846C120.525 69.9986 119.561 74.3887 119.944 78.8571C120.571 86.1777 125.122 90.2456 129.591 93.611C131.881 95.3345 134.22 96.9822 136.278 99.1749C138.376 101.418 140.213 104.057 141.729 107.006C144.726 112.824 146.492 119.592 146.847 126.611C147.025 130.119 146.815 133.642 146.224 137.069C145.636 140.422 144.709 144.648 142.269 146.448C141.687 146.887 141.018 147.08 140.351 147.001C139.683 146.922 139.05 146.575 138.537 146.006C137.549 144.959 137.065 143.1 138.087 141.791C138.933 140.707 140.288 140.935 141.309 141.376C142.538 141.907 143.495 142.897 144.411 144.067C146.158 146.297 148.203 149.035 150.861 148.323C151.352 148.191 151.144 147.2 150.653 147.331C147.445 148.191 145.511 143.269 143.145 141.375C141.432 140.003 138.506 138.983 137.168 141.658C135.723 144.545 138.046 147.66 140.204 148.032C143.011 148.515 144.956 144.894 145.898 141.904C148.083 134.971 148.151 126.842 146.815 119.622C145.478 112.291 142.59 105.612 138.485 100.367C136.414 97.7604 134.039 95.7625 131.561 93.9028C129.06 92.0255 126.453 90.2245 124.314 87.6479C123.128 86.2681 122.185 84.5637 121.55 82.6535C120.915 80.7433 120.604 78.6733 120.637 76.5878C120.66 71.7843 121.83 67.1229 121.757 62.3102C121.696 58.3198 120.669 54.4233 118.039 52.1768C116.955 51.2064 115.661 50.7295 114.353 50.8189C113.821 50.8766 113.074 50.9948 112.636 51.4345C112.283 51.7885 112.216 52.6172 112.287 53.153C112.456 54.4255 113.368 55.3092 114.254 55.6634C114.792 55.8918 115.37 55.901 115.913 55.6897C116.455 55.4785 116.937 55.0566 117.295 54.4789C118.147 53.1807 118.442 51.4493 118.563 49.7821C118.726 47.5235 118.636 45.2033 118.56 42.9409C118.254 33.7466 116.877 24.3322 113.257 16.347C110.18 9.55935 105.394 3.86801 99.6559 1.35009C96.9519 0.163601 93.7443 -0.547463 90.9541 0.531626C88.5536 1.46005 86.7141 4.06781 87.1105 7.52161C87.446 10.4453 89.7411 12.4675 91.7637 10.6221C92.2409 10.1867 92.6412 9.62046 92.9374 8.9621C93.2337 8.30374 93.4187 7.56876 93.48 6.80735C93.5414 6.04594 93.4775 5.27604 93.2927 4.5502C93.108 3.82437 92.8067 3.1597 92.4096 2.60159C90.4544 -0.100988 87.2662 -0.0815388 84.8265 1.29193C83.3573 2.11904 82.0565 3.35828 80.802 4.64567C79.2028 6.28669 77.6261 7.96703 76.0397 9.62945L56.9287 29.656C55.4204 31.2367 53.9363 32.875 52.3775 34.3691C50.923 35.7634 49.3183 37.0548 47.5277 37.5024C45.0063 38.1328 41.0149 36.4796 41.3207 32.2585C41.4394 30.6192 42.2621 28.8085 43.5195 28.3385C44.7521 27.8777 45.9158 28.9243 46.374 30.4058C47.3841 33.6721 46.1978 37.4084 45.0179 40.2757C42.0964 47.3754 37.4881 53.1572 32.0885 56.9194C29.3857 58.8069 26.4888 60.1638 23.4893 60.9473C20.1199 61.8211 16.8137 61.6501 13.4071 61.3773C10.1048 61.113 6.63716 61.14 3.69384 63.4114C1.28038 65.2739 -0.329636 68.6514 0.0572333 72.4152C0.393185 75.6835 2.37915 78.1816 4.94051 77.9056C7.0904 77.6739 9.25038 75.2507 8.48761 72.1729C7.85597 69.6242 5.41789 67.6144 3.55311 69.2979C3.1417 69.6693 3.53104 70.5609 3.94638 70.1859H3.94641Z" fill="#3F3D56"/>
<path d="M169.072 144.438H150.193C149.898 144.439 149.616 144.594 149.407 144.869C149.198 145.144 149.081 145.517 149.081 145.907V161.42C149.081 161.81 149.198 162.183 149.407 162.458C149.616 162.733 149.898 162.888 150.193 162.889H169.072C169.367 162.888 169.649 162.733 169.858 162.458C170.066 162.183 170.184 161.81 170.184 161.42V145.907C170.184 145.517 170.066 145.144 169.858 144.869C169.649 144.594 169.367 144.439 169.072 144.438Z" fill="#F2F2F2"/>
<path d="M169.072 144.438H150.193C149.898 144.439 149.616 144.594 149.407 144.869C149.198 145.144 149.081 145.517 149.081 145.907V161.42C149.081 161.81 149.198 162.183 149.407 162.458C149.616 162.733 149.898 162.888 150.193 162.889H169.072C169.367 162.888 169.649 162.733 169.858 162.458C170.066 162.183 170.184 161.81 170.184 161.42V145.907C170.184 145.517 170.066 145.144 169.858 144.869C169.649 144.594 169.367 144.439 169.072 144.438ZM169.437 155.582C169.432 157.161 168.959 158.676 168.118 159.8C167.278 160.924 166.137 161.568 164.94 161.595C163.025 161.628 166 161.64 163.69 161.64C158.407 161.64 152.898 161.574 150.843 161.531C150.573 161.523 150.315 161.377 150.126 161.122C149.936 160.868 149.829 160.525 149.828 160.168V145.908C149.828 145.78 149.867 145.657 149.935 145.567C150.004 145.476 150.096 145.425 150.193 145.425H169.071C169.168 145.425 169.261 145.476 169.329 145.566C169.398 145.656 169.436 145.779 169.437 145.907L169.437 155.582Z" fill="#E6E6E6"/>
<path d="M166.748 135.505H152.364C152.237 135.505 152.113 135.557 152.009 135.654C151.905 135.751 151.826 135.888 151.783 136.046L149.562 144.272C149.529 144.395 149.518 144.526 149.532 144.655C149.545 144.785 149.582 144.908 149.639 145.014C149.695 145.121 149.771 145.208 149.858 145.268C149.946 145.328 150.043 145.36 150.142 145.36L169.432 145.405H169.433C169.535 145.405 169.636 145.371 169.726 145.308C169.816 145.244 169.892 145.151 169.948 145.039C170.005 144.926 170.039 144.797 170.048 144.663C170.057 144.529 170.041 144.394 170 144.27L169.967 144.289L170 144.27L167.315 135.999C167.267 135.852 167.188 135.727 167.087 135.639C166.987 135.552 166.868 135.505 166.748 135.505Z" fill="#E6E6E6"/>
<path d="M170.05 144.448C170.05 144.559 170.033 144.668 170 144.769L167.315 151.136C167.267 151.282 167.188 151.407 167.087 151.495C166.986 151.582 166.868 151.629 166.748 151.629H152.365C152.237 151.629 152.113 151.577 152.009 151.48C151.905 151.384 151.826 151.247 151.783 151.089L149.562 144.767C149.535 144.666 149.523 144.56 149.527 144.453C149.531 144.346 149.551 144.241 149.586 144.145C149.62 144.048 149.669 143.961 149.729 143.89C149.789 143.818 149.86 143.763 149.936 143.727C150.002 143.695 150.072 143.679 150.142 143.679L152.498 143.673L153.46 143.671L166.116 143.642L167.078 143.64L169.433 143.634H169.433C169.597 143.634 169.754 143.72 169.87 143.873C169.985 144.025 170.05 144.232 170.05 144.448Z" fill="#E6E6E6"/>
<path d="M151.608 156.075C151.894 156.075 155.81 156.391 155.81 156.768C155.81 157.144 151.894 157.439 151.608 157.439C151.472 157.439 151.34 157.367 151.243 157.239C151.146 157.111 151.092 156.938 151.092 156.757C151.092 156.576 151.146 156.403 151.243 156.275C151.34 156.147 151.472 156.075 151.608 156.075V156.075Z" fill="#E6E6E6"/>
<path d="M165.852 130.501H153.724C153.399 130.501 153.088 130.672 152.858 130.975C152.628 131.279 152.499 131.69 152.498 132.119V151.629H166.748C166.865 151.63 166.979 151.586 167.078 151.503V132.119C167.078 131.69 166.948 131.279 166.718 130.975C166.489 130.672 166.177 130.501 165.852 130.501Z" fill="#F2F2F2"/>
<path d="M161.223 131.813H154.577C154.281 131.813 153.997 131.968 153.788 132.245C153.578 132.521 153.461 132.895 153.46 133.286V151.629H166.116V138.271C166.114 136.558 165.598 134.917 164.681 133.706C163.764 132.496 162.52 131.815 161.223 131.813Z" fill="white"/>
<path d="M163.96 150H155.616C155.544 150 155.475 150.038 155.424 150.105C155.373 150.173 155.344 150.264 155.344 150.359C155.344 150.454 155.373 150.546 155.424 150.613C155.475 150.68 155.544 150.718 155.616 150.718H163.96C164.032 150.718 164.101 150.68 164.152 150.613C164.203 150.546 164.231 150.454 164.231 150.359C164.231 150.264 164.203 150.173 164.152 150.105C164.101 150.038 164.032 150 163.96 150Z" fill="#E4E4E4"/>
<path d="M163.96 148.581H155.616C155.544 148.581 155.475 148.618 155.424 148.686C155.373 148.753 155.344 148.845 155.344 148.94C155.344 149.035 155.373 149.127 155.424 149.194C155.475 149.261 155.544 149.299 155.616 149.299H163.96C163.995 149.299 164.031 149.29 164.064 149.272C164.097 149.254 164.127 149.227 164.152 149.194C164.177 149.161 164.197 149.121 164.211 149.077C164.225 149.034 164.232 148.987 164.232 148.94C164.232 148.893 164.225 148.846 164.211 148.802C164.197 148.759 164.177 148.719 164.152 148.686C164.127 148.652 164.097 148.626 164.064 148.608C164.031 148.59 163.995 148.581 163.96 148.581Z" fill="#E4E4E4"/>
<path d="M159.233 147.162H155.616C155.544 147.162 155.475 147.2 155.424 147.267C155.373 147.334 155.344 147.425 155.344 147.521C155.344 147.616 155.373 147.707 155.424 147.774C155.475 147.842 155.544 147.88 155.616 147.88H159.233C159.305 147.88 159.374 147.842 159.425 147.774C159.476 147.707 159.505 147.616 159.505 147.521C159.505 147.425 159.476 147.334 159.425 147.267C159.374 147.2 159.305 147.162 159.233 147.162Z" fill="#E4E4E4"/>
<path d="M163.96 144.189H155.616C155.544 144.19 155.475 144.227 155.424 144.295C155.373 144.362 155.345 144.453 155.345 144.549C155.345 144.644 155.373 144.735 155.424 144.802C155.475 144.87 155.544 144.908 155.616 144.908H163.96C163.995 144.908 164.031 144.899 164.064 144.881C164.097 144.863 164.127 144.836 164.153 144.803C164.178 144.77 164.198 144.73 164.212 144.686C164.226 144.643 164.233 144.596 164.233 144.549C164.233 144.501 164.226 144.454 164.212 144.411C164.198 144.367 164.178 144.327 164.153 144.294C164.127 144.261 164.097 144.234 164.064 144.216C164.031 144.198 163.995 144.189 163.96 144.189Z" fill="#E4E4E4"/>
<path d="M163.96 142.77H155.616C155.544 142.77 155.475 142.808 155.424 142.876C155.373 142.943 155.344 143.034 155.344 143.129C155.344 143.225 155.373 143.316 155.424 143.383C155.475 143.45 155.544 143.488 155.616 143.488H163.96C164.032 143.488 164.101 143.45 164.152 143.383C164.203 143.316 164.231 143.225 164.231 143.129C164.231 143.034 164.203 142.943 164.152 142.876C164.101 142.808 164.032 142.77 163.96 142.77Z" fill="#E4E4E4"/>
<path d="M159.233 141.351H155.616C155.544 141.351 155.475 141.389 155.424 141.456C155.373 141.523 155.344 141.615 155.344 141.71C155.344 141.805 155.373 141.897 155.424 141.964C155.475 142.031 155.544 142.069 155.616 142.069H159.233C159.305 142.069 159.374 142.031 159.425 141.964C159.476 141.897 159.505 141.805 159.505 141.71C159.505 141.615 159.476 141.523 159.425 141.456C159.374 141.389 159.305 141.351 159.233 141.351Z" fill="#E4E4E4"/>
<path d="M163.96 138.378H155.616C155.544 138.378 155.475 138.416 155.424 138.484C155.373 138.551 155.345 138.642 155.345 138.737C155.345 138.833 155.373 138.924 155.424 138.991C155.475 139.058 155.544 139.096 155.616 139.097H163.96C163.995 139.097 164.031 139.088 164.064 139.07C164.097 139.052 164.127 139.025 164.153 138.992C164.178 138.959 164.198 138.919 164.212 138.875C164.226 138.832 164.233 138.785 164.233 138.737C164.233 138.69 164.226 138.643 164.212 138.6C164.198 138.556 164.178 138.516 164.153 138.483C164.127 138.45 164.097 138.423 164.064 138.405C164.031 138.387 163.995 138.378 163.96 138.378Z" fill="#E4E4E4"/>
<path d="M163.96 136.959H155.616C155.544 136.96 155.475 136.998 155.424 137.065C155.373 137.132 155.345 137.224 155.345 137.319C155.345 137.414 155.373 137.505 155.424 137.572C155.475 137.64 155.544 137.678 155.616 137.678H163.96C163.995 137.678 164.031 137.669 164.064 137.651C164.097 137.633 164.127 137.606 164.153 137.573C164.178 137.54 164.198 137.5 164.212 137.456C164.226 137.413 164.233 137.366 164.233 137.319C164.233 137.271 164.226 137.225 164.212 137.181C164.198 137.137 164.178 137.098 164.153 137.064C164.127 137.031 164.097 137.004 164.064 136.986C164.031 136.968 163.995 136.959 163.96 136.959Z" fill="#E4E4E4"/>
<path d="M159.233 135.54H155.616C155.544 135.54 155.475 135.578 155.424 135.645C155.373 135.712 155.344 135.804 155.344 135.899C155.344 135.994 155.373 136.086 155.424 136.153C155.475 136.221 155.544 136.258 155.616 136.258H159.233C159.269 136.258 159.304 136.249 159.337 136.231C159.37 136.213 159.4 136.187 159.425 136.153C159.451 136.12 159.471 136.08 159.484 136.037C159.498 135.993 159.505 135.946 159.505 135.899C159.505 135.852 159.498 135.805 159.484 135.762C159.471 135.718 159.451 135.678 159.425 135.645C159.4 135.612 159.37 135.585 159.337 135.567C159.304 135.549 159.269 135.54 159.233 135.54Z" fill="#E4E4E4"/>
<path d="M69.3794 68.264C73.8258 68.264 77.4303 63.5064 77.4303 57.6375C77.4303 51.7687 73.8258 47.0111 69.3794 47.0111C64.933 47.0111 61.3285 51.7687 61.3285 57.6375C61.3285 63.5064 64.933 68.264 69.3794 68.264Z" fill="#FFB6B6"/>
<path d="M78.5695 51.5532C77.7227 49.8239 76.1334 48.6713 74.5928 48.9952C74.4494 47.6975 74.039 46.4765 73.4063 45.4653C72.7736 44.4541 71.9428 43.6914 71.0045 43.2603C70.0661 42.8291 69.0561 42.746 68.0844 43.02C67.1127 43.2941 66.2166 43.9147 65.4937 44.8144C65.256 44.5935 64.979 44.4573 64.6897 44.4191C64.4004 44.3809 64.1085 44.4419 63.8423 44.5963C63.312 44.9145 62.8507 45.4032 62.5006 46.0177C61.6166 47.4728 61.0481 49.2171 60.8555 51.0649C60.6629 52.9127 60.8536 54.7949 61.4072 56.511C61.2189 55.6075 61.9048 54.7576 62.5979 54.5548C63.291 54.3521 64.018 54.5439 64.7208 54.4119C65.6216 54.2427 66.4314 53.553 67.3336 53.3977C68.0919 53.2673 68.8544 53.5239 69.5938 53.7811C70.3333 54.0383 71.0938 54.3006 71.8532 54.1815C72.6125 54.0625 73.5907 57.8609 73.5776 60.5362C73.5751 61.0432 73.6542 61.6942 74.0296 61.8017C74.4919 61.9342 74.7597 61.0921 75.1997 60.8626C75.4025 60.7859 75.62 60.8161 75.8062 60.9468C75.9925 61.0776 76.133 61.2986 76.1982 61.5634C76.2537 61.8326 76.2596 62.1154 76.2155 62.3883C76.1714 62.6611 76.0786 62.9161 75.9448 63.1321C75.6744 63.5602 75.3533 63.9278 74.994 64.2208L75.1752 64.4197C75.4767 64.9453 76.1019 64.9681 76.5364 64.6429C76.9519 64.2715 77.2883 63.7658 77.5137 63.1741C78.3175 61.4094 79.0226 59.5292 79.3063 57.5045C79.59 55.4797 79.4164 53.2825 78.5695 51.5532Z" fill="#2F2E41"/>
<path d="M78.8233 243.725L74.4755 243.724L72.407 221.588L78.8244 221.588L78.8233 243.725Z" fill="#FFB6B6"/>
<path d="M78.9766 249.712L65.6058 249.711V249.488C65.6058 247.666 66.1542 245.919 67.1302 244.631C68.1061 243.343 69.4298 242.619 70.8101 242.619H70.8104L73.2527 240.173L77.8096 242.619L78.9768 242.619L78.9766 249.712Z" fill="#2F2E41"/>
<path d="M86.664 233.592L83.253 237.15L71.2292 221.478L76.2637 216.225L86.664 233.592Z" fill="#FFB6B6"/>
<path d="M89.5972 238.163L79.108 249.107L79.0031 248.932C78.1472 247.503 77.7564 245.684 77.9168 243.874C78.0772 242.065 78.7755 240.413 79.8582 239.284L79.8584 239.283L80.6253 235.365L85.3493 233.554L86.2649 232.599L89.5972 238.163Z" fill="#2F2E41"/>
<path d="M56.3395 139.963L56.0741 146.423L57.3652 148.481L57.2171 154.942L58.4698 159.171L59.3508 172.625L71.6894 228.764L82.8081 224.056L70.6666 171.725L85.2747 171.244L85.769 141.736L83.1803 135.131L56.3395 139.963Z" fill="#2F2E41"/>
<path d="M83.8698 166.795L85.2747 171.244L79.8425 233.883L72.2208 234.618L68.9295 164.589L83.8698 166.795Z" fill="#2F2E41"/>
<path d="M76.4001 74.4864L73.8973 69.9139L65.8162 70.3414L65.6611 73.8622L60.2928 140.788L65.5648 140.632L72.1091 142.649L84.6963 136.834L76.4001 74.4864Z" fill="#6C63FF"/>
<path d="M62.3659 142.026H49.9723L53.2057 111.901L54.5168 99.6908C54.5168 99.6908 53.5887 90.9639 53.1394 86.4044C53.0976 85.9178 53.1614 85.4255 53.3236 84.9851C53.4706 84.5724 53.6625 84.1903 53.8932 83.8509C55.4006 81.5565 58.7912 79.5668 60.9174 78.478C62.0124 77.9206 62.7735 77.5998 62.7735 77.5998L65.6607 73.8634C69.805 80.6978 62.3659 142.026 62.3659 142.026Z" fill="#3F3D56"/>
<path d="M74.8303 71.9984L78.7621 74.9724C78.7621 74.9724 90.4062 77.4968 91.5385 83.2689L87.2523 100.346V136.237L76.8616 141.736C76.8616 141.736 67.8986 83.753 74.8303 71.9984Z" fill="#3F3D56"/>
<path opacity="0.4" d="M70.8505 163.139L68.9295 192.508L72.2003 226.688" fill="black"/>
<path d="M24.4714 108.428C24.7917 108.124 25.1585 107.916 25.546 107.82C25.9336 107.724 26.3325 107.741 26.7146 107.87C27.0966 107.999 27.4526 108.237 27.7575 108.567C28.0623 108.897 28.3086 109.312 28.4789 109.781L38.005 108.359L35.7471 114.221L27.0472 114.672C26.4306 114.998 25.7451 115.014 25.1204 114.716C24.4957 114.419 23.9753 113.83 23.6578 113.06C23.3403 112.29 23.2478 111.394 23.3977 110.54C23.5477 109.686 23.9297 108.935 24.4714 108.428L24.4714 108.428Z" fill="#FFB6B6"/>
<path d="M64.4534 82.7627L67.1795 84.9122L51.912 113.301L33.2768 115.391L32.5347 108.368L46.265 102.931L53.0516 85.5683L64.4534 82.7627Z" fill="#3F3D56"/>
<path d="M120.019 106.028C119.698 105.724 119.332 105.517 118.944 105.42C118.557 105.324 118.158 105.341 117.776 105.47C117.393 105.599 117.037 105.837 116.733 106.167C116.428 106.498 116.182 106.912 116.011 107.382L106.485 105.96L108.743 111.821L117.443 112.273C118.06 112.598 118.745 112.614 119.37 112.317C119.994 112.02 120.515 111.43 120.832 110.661C121.15 109.891 121.242 108.994 121.092 108.14C120.942 107.286 120.56 106.535 120.019 106.028V106.028Z" fill="#FFB6B6"/>
<path d="M80.0365 80.3629L77.3107 82.5124L92.5782 110.901L111.213 112.991L111.955 105.969L98.2252 100.531L91.4386 83.1685L80.0365 80.3629Z" fill="#3F3D56"/>
<path d="M42.9177 73.6829V73.3077H38.1524V64.5552H37.8689V73.3077H32.4075V66.5485C32.3121 66.6476 32.2178 66.7495 32.1247 66.8544V73.3077H28.5176C28.4775 73.4318 28.4389 73.5568 28.4025 73.6829H32.1247V81.0376H27.503C27.5074 81.1636 27.514 81.2877 27.522 81.4128H32.1247V87.2802H28.6765C28.7188 87.4062 28.7632 87.5303 28.8099 87.6534H32.1247V92.5857H32.4075V87.6534H37.8689V92.5857H38.1524V87.6534H42.9177V87.2802H38.1524C38.1523 86.5096 38.2672 85.7466 38.4905 85.0346C38.7139 84.3227 39.0413 83.6758 39.4541 83.1309C39.8669 82.5861 40.357 82.1539 40.8964 81.8591C41.4358 81.5643 42.0139 81.4126 42.5977 81.4128H42.9177V81.0376H38.1524V73.6829H42.9177ZM37.8689 87.2802H32.4075V81.4128H37.8689V87.2802ZM37.8689 81.0376H32.4075V80.8904C32.4076 79.9438 32.5489 79.0065 32.8234 78.132C33.0978 77.2576 33.5001 76.463 34.0073 75.7937C34.5144 75.1244 35.1164 74.5935 35.779 74.2314C36.4416 73.8692 37.1517 73.6828 37.8689 73.6829V81.0376Z" fill="#E6E6E6"/>
<path d="M84.3196 21.7537C84.2824 21.7739 84.2407 21.7739 84.2035 21.7535C84.1663 21.7332 84.1368 21.6942 84.1214 21.6452L83.7268 20.3866C83.7114 20.3375 83.7114 20.2824 83.7268 20.2333C83.7422 20.1843 83.7718 20.1453 83.809 20.125C83.8462 20.1047 83.8879 20.1047 83.9251 20.125C83.9623 20.1454 83.9918 20.1844 84.0072 20.2335L84.4018 21.492C84.4171 21.5411 84.4171 21.5962 84.4017 21.6453C84.3863 21.6943 84.3568 21.7333 84.3196 21.7537Z" fill="#3F3D56"/>
<path d="M92.2787 12.4302L91.1009 8.67356C91.0114 8.38804 90.8801 8.12859 90.7146 7.91001C90.5491 7.69144 90.3526 7.51803 90.1364 7.39969C89.9201 7.28134 89.6883 7.22038 89.4542 7.22028C89.2201 7.22017 88.9883 7.28094 88.7719 7.3991L82.7421 10.6927C82.5257 10.8109 82.3292 10.9841 82.1636 11.2025C81.998 11.421 81.8666 11.6803 81.7769 11.9657C81.6873 12.2512 81.6411 12.5572 81.641 12.8662C81.6409 13.1752 81.687 13.4812 81.7765 13.7667L88.238 34.3758C88.3275 34.6613 88.4588 34.9207 88.6243 35.1393C88.7897 35.3579 88.9862 35.5313 89.2025 35.6496C89.4187 35.768 89.6505 35.8289 89.8847 35.8291C90.1188 35.8292 90.3506 35.7684 90.5669 35.6502L96.5968 32.3566C96.8131 32.2385 97.0097 32.0652 97.1753 31.8468C97.3409 31.6284 97.4723 31.369 97.5619 31.0836C97.6516 30.7981 97.6978 30.4922 97.6979 30.1832C97.6979 29.8742 97.6519 29.5682 97.5624 29.2826L93.1171 15.1042C93.1307 15.0968 93.1431 15.0858 93.1535 15.0721C93.164 15.0583 93.1723 15.0419 93.1779 15.0239C93.1836 15.0059 93.1865 14.9866 93.1865 14.9671C93.1865 14.9476 93.1836 14.9283 93.1779 14.9103L92.4256 12.5106C92.4199 12.4926 92.4116 12.4762 92.4012 12.4624C92.3908 12.4486 92.3784 12.4377 92.3647 12.4302C92.3511 12.4228 92.3365 12.4189 92.3217 12.4189C92.3069 12.4189 92.2923 12.4227 92.2787 12.4302Z" fill="#3F3D56"/>
<path d="M90.7548 8.8796L97.207 29.4591C97.3412 29.8865 97.3421 30.3665 97.2096 30.7949C97.0771 31.2232 96.8219 31.5652 96.4995 31.7466C96.4954 31.75 96.4911 31.7528 96.4866 31.755L90.4273 35.0647C90.101 35.2429 89.7343 35.2427 89.408 35.0641C89.0818 34.8856 88.8226 34.5433 88.6875 34.1126L82.2352 13.5331C82.1684 13.3198 82.1341 13.0913 82.1342 12.8605C82.1343 12.6298 82.1689 12.4013 82.2359 12.1881C82.3029 11.975 82.4011 11.7814 82.5248 11.6183C82.6485 11.4552 82.7954 11.3259 82.957 11.2378L83.6918 10.8364C83.6923 10.9735 83.7183 11.1083 83.7676 11.2289C83.8169 11.3495 83.8879 11.4523 83.9744 11.5281C84.0609 11.604 84.1602 11.6505 84.2635 11.6637C84.3669 11.677 84.4711 11.6564 84.567 11.6039L88.0216 9.71693C88.0969 9.67567 88.1654 9.61504 88.2228 9.53858C88.282 9.46167 88.3291 9.37009 88.3615 9.2691C88.3938 9.1681 88.4107 9.05968 88.4112 8.95005C88.4117 8.84042 88.3958 8.73173 88.3644 8.63023C88.333 8.52873 88.2867 8.4364 88.2282 8.35856L89.0162 7.92817C89.3423 7.75008 89.7087 7.75027 90.0347 7.92869C90.3608 8.10711 90.6198 8.44916 90.7548 8.8796Z" fill="#6C63FF"/>
<path d="M83.6465 19.6067C83.6093 19.627 83.5675 19.6269 83.5304 19.6066C83.4932 19.5863 83.4637 19.5473 83.4482 19.4983L83.0537 18.2397C83.0383 18.1906 83.0383 18.1355 83.0537 18.0864C83.0691 18.0373 83.0987 17.9984 83.1359 17.9781C83.173 17.9577 83.2148 17.9578 83.252 17.9781C83.2892 17.9984 83.3187 18.0375 83.3341 18.0865L83.7287 19.3451C83.744 19.3942 83.744 19.4493 83.7286 19.4983C83.7132 19.5474 83.6837 19.5864 83.6465 19.6067Z" fill="#3F3D56"/>
<path d="M82.8525 17.179C82.8153 17.1993 82.7736 17.1992 82.7364 17.1789C82.6992 17.1585 82.6697 17.1196 82.6543 17.0705L82.2597 15.812C82.252 15.7877 82.248 15.7616 82.2479 15.7352C82.2479 15.7089 82.2518 15.6827 82.2594 15.6584C82.267 15.634 82.2782 15.6119 82.2923 15.5932C82.3064 15.5746 82.3232 15.5598 82.3417 15.5497C82.3601 15.5396 82.3799 15.5345 82.3999 15.5345C82.4198 15.5345 82.4396 15.5397 82.458 15.5499C82.4765 15.56 82.4932 15.5749 82.5073 15.5936C82.5214 15.6122 82.5325 15.6344 82.5401 15.6588L82.9347 16.9174C82.95 16.9664 82.95 17.0216 82.9346 17.0706C82.9192 17.1197 82.8897 17.1587 82.8525 17.179Z" fill="#3F3D56"/>
<path d="M85.0737 10.3296C85.0583 10.2805 85.0584 10.2254 85.0738 10.1764C85.0892 10.1273 85.1187 10.0883 85.1559 10.068L86.1094 9.54714C86.1466 9.52683 86.1883 9.52685 86.2255 9.54719C86.2627 9.56754 86.2922 9.60654 86.3076 9.65563C86.323 9.70472 86.323 9.75986 86.3076 9.80894C86.2922 9.85801 86.2626 9.89699 86.2254 9.9173L85.2719 10.4381C85.2347 10.4584 85.193 10.4583 85.1558 10.438C85.1186 10.4176 85.0891 10.3787 85.0737 10.3296Z" fill="white"/>
<path d="M86.7002 9.64145C86.7841 9.64145 86.852 9.55177 86.852 9.44115C86.852 9.33052 86.7841 9.24084 86.7002 9.24084C86.6164 9.24084 86.5485 9.33052 86.5485 9.44115C86.5485 9.55177 86.6164 9.64145 86.7002 9.64145Z" fill="white"/>
<path d="M119.613 98.5183C119.594 98.5183 119.574 98.5178 119.555 98.5168C119.33 98.506 119.11 98.4235 118.914 98.2763C118.718 98.1292 118.552 97.9217 118.429 97.6716C117.514 95.8657 116.39 94.2595 115.1 92.9109C114.318 92.0866 113.502 91.32 112.712 90.5786C110.675 88.6668 108.756 86.8661 107.691 84.378C105.369 78.9526 108.104 71.3958 112.01 68.0068C116.392 64.2059 122.155 63.6097 127.73 63.5316C128.31 63.5235 128.889 63.5195 129.47 63.5195C139.515 63.5246 149.539 64.7344 159.419 67.1341C162.704 67.9341 166.143 68.9141 168.906 71.2924C171.653 73.6567 173.323 77.3798 173.16 80.7779C172.922 85.7385 168.938 89.4451 165.31 90.4142C161.852 91.3371 158.26 90.7134 154.457 90.0529C153.618 89.9072 152.749 89.7564 151.891 89.6254C142.562 88.2021 125.036 92.5891 124.294 92.7766L123.559 92.9625L120.704 97.8105C120.576 98.0314 120.411 98.2103 120.221 98.3331C120.032 98.4558 119.824 98.5192 119.613 98.5183Z" fill="#6C63FF"/>
<path d="M161.158 74.3188H121.725C121.498 74.3188 121.28 74.1995 121.119 73.9871C120.958 73.7748 120.867 73.4867 120.867 73.1864C120.867 72.886 120.958 72.598 121.119 72.3856C121.28 72.1733 121.498 72.054 121.725 72.054H161.158C161.385 72.054 161.603 72.1733 161.764 72.3856C161.925 72.598 162.016 72.886 162.016 73.1864C162.016 73.4867 161.925 73.7748 161.764 73.9871C161.603 74.1995 161.385 74.3188 161.158 74.3188Z" fill="white"/>
<path d="M161.158 81.2697H121.725C121.498 81.2696 121.28 81.1504 121.119 80.9383C120.958 80.7262 120.868 80.4385 120.868 80.1385C120.868 79.8384 120.957 79.5505 121.118 79.3379C121.278 79.1254 121.496 79.0056 121.724 79.0049H161.158C161.385 79.0054 161.603 79.1249 161.763 79.3373C161.924 79.5496 162.014 79.8373 162.014 80.1373C162.014 80.4373 161.924 80.725 161.763 80.9374C161.603 81.1497 161.385 81.2692 161.158 81.2697Z" fill="white"/>
<path d="M126.321 88.2205H121.725C121.498 88.22 121.28 88.1005 121.12 87.8882C120.959 87.6758 120.869 87.3881 120.869 87.0881C120.869 86.7881 120.959 86.5004 121.12 86.2881C121.28 86.0757 121.498 85.9562 121.725 85.9557H126.321C126.548 85.9562 126.766 86.0757 126.926 86.2881C127.087 86.5004 127.177 86.7881 127.177 87.0881C127.177 87.3881 127.087 87.6758 126.926 87.8882C126.766 88.1005 126.548 88.22 126.321 88.2205Z" fill="white"/>
<path d="M120.1 106.413C122.403 106.413 124.27 103.949 124.27 100.909C124.27 97.8685 122.403 95.4041 120.1 95.4041C117.796 95.4041 115.929 97.8685 115.929 100.909C115.929 103.949 117.796 106.413 120.1 106.413Z" fill="white"/>
<path d="M120.1 106.48C119.265 106.48 118.449 106.154 117.754 105.541C117.06 104.929 116.519 104.059 116.2 103.041C115.88 102.023 115.797 100.902 115.959 99.8217C116.122 98.7409 116.524 97.7481 117.115 96.9689C117.705 96.1896 118.457 95.659 119.276 95.444C120.095 95.229 120.944 95.3393 121.715 95.761C122.486 96.1827 123.146 96.8969 123.61 97.8131C124.073 98.7294 124.321 99.8066 124.321 100.909C124.32 102.386 123.875 103.802 123.083 104.847C122.292 105.891 121.219 106.479 120.1 106.48Z" fill="#3F3D56"/>
<path d="M119.787 103.109C119.779 103.109 119.77 103.108 119.761 103.108C119.682 103.103 119.605 103.075 119.536 103.027C119.466 102.98 119.405 102.912 119.357 102.83L118.66 101.648C118.616 101.573 118.583 101.488 118.564 101.397C118.545 101.305 118.54 101.21 118.549 101.116C118.558 101.022 118.58 100.932 118.616 100.85C118.651 100.767 118.699 100.695 118.755 100.637L118.78 100.611C118.837 100.553 118.902 100.51 118.971 100.485C119.04 100.46 119.112 100.453 119.183 100.465C119.254 100.477 119.323 100.507 119.385 100.554C119.447 100.6 119.502 100.663 119.546 100.738C119.581 100.797 119.626 100.846 119.677 100.881C119.728 100.916 119.784 100.936 119.841 100.939C119.898 100.943 119.955 100.93 120.008 100.902C120.062 100.874 120.109 100.831 120.149 100.776L121.564 98.8044C121.664 98.666 121.801 98.5853 121.945 98.5801C122.09 98.5749 122.23 98.6456 122.335 98.7768L122.359 98.806C122.411 98.871 122.452 98.9489 122.482 99.0353C122.511 99.1217 122.527 99.2148 122.529 99.3094C122.531 99.4039 122.519 99.498 122.493 99.5864C122.467 99.6747 122.429 99.7555 122.379 99.8241L120.183 102.884C120.132 102.955 120.071 103.011 120.003 103.05C119.935 103.089 119.862 103.109 119.787 103.109Z" fill="white"/>
<path d="M42.2296 29.7541L39.6782 9.50198C39.6269 9.092 39.7009 8.67191 39.884 8.33387C40.0671 7.99582 40.3443 7.76744 40.6548 7.69882L52.2426 5.15549C52.5532 5.08779 52.8714 5.18549 53.1276 5.42713C53.3837 5.66878 53.5567 6.03465 53.6087 6.44448L56.1601 26.6965C56.2114 27.1065 56.1374 27.5266 55.9543 27.8647C55.7712 28.2027 55.494 28.4311 55.1836 28.4997L43.5958 31.043C43.2852 31.1107 42.9669 31.013 42.7108 30.7714C42.4547 30.5298 42.2816 30.1639 42.2296 29.7541Z" fill="#3F3D56"/>
<path d="M42.3478 23.442L40.7076 10.4221C40.6595 10.0382 40.7288 9.64472 40.9003 9.32813C41.0717 9.01154 41.3313 8.79766 41.6221 8.7334L51.5809 6.5476C51.8718 6.48419 52.1698 6.57567 52.4097 6.80198C52.6496 7.02829 52.8116 7.37094 52.8603 7.75476L55.1308 25.7763C55.1788 26.1603 55.1095 26.5537 54.938 26.8703C54.7665 27.1869 54.5069 27.4008 54.2161 27.4651L48.0469 28.8191C46.7511 29.1015 45.4234 28.694 44.355 27.6859C43.2866 26.6779 42.5647 25.1516 42.3478 23.442Z" fill="white"/>
<path d="M42.7777 13.701C42.7307 13.3258 42.7985 12.9413 42.966 12.6319C43.1336 12.3226 43.3872 12.1136 43.6714 12.0508L50.5797 10.5345C50.7205 10.5036 50.8645 10.5096 51.0035 10.5522C51.1426 10.5947 51.2739 10.673 51.39 10.7826C51.5061 10.8921 51.6047 11.0307 51.6802 11.1906C51.7557 11.3504 51.8066 11.5283 51.83 11.7141C51.8534 11.9 51.8489 12.09 51.8166 12.2735C51.7844 12.457 51.725 12.6303 51.6421 12.7836C51.5591 12.9368 51.454 13.067 51.3329 13.1666C51.2118 13.2663 51.077 13.3335 50.9363 13.3643L44.0279 14.8806C43.7437 14.9426 43.4524 14.8532 43.218 14.632C42.9836 14.4109 42.8253 14.076 42.7777 13.701Z" fill="#6C63FF"/>
<path d="M43.3323 18.103C43.2853 17.7278 43.353 17.3433 43.5206 17.0339C43.6881 16.7246 43.9418 16.5156 44.226 16.4528L51.1343 14.9365C51.4186 14.8741 51.7101 14.9633 51.9446 15.1845C52.179 15.4058 52.3373 15.7409 52.3846 16.1161C52.4319 16.4914 52.3643 16.8761 52.1966 17.1855C52.029 17.495 51.7752 17.7039 51.4908 17.7663L44.5825 19.2826C44.2982 19.3446 44.007 19.2552 43.7726 19.034C43.5382 18.8129 43.3798 18.478 43.3323 18.103Z" fill="#6C63FF"/>
<path d="M43.8868 22.5049C43.8399 22.1297 43.9076 21.7453 44.0752 21.4359C44.2427 21.1265 44.4964 20.9175 44.7806 20.8547L51.6889 19.3385C51.8297 19.3076 51.9737 19.3136 52.1127 19.3561C52.2517 19.3987 52.383 19.477 52.4991 19.5865C52.6152 19.6961 52.7138 19.8347 52.7893 19.9945C52.8648 20.1544 52.9157 20.3323 52.9391 20.5181C52.9626 20.7039 52.958 20.894 52.9258 21.0775C52.8935 21.261 52.8342 21.4343 52.7512 21.5875C52.6682 21.7408 52.5632 21.8709 52.4421 21.9706C52.321 22.0702 52.1862 22.1374 52.0454 22.1683L45.1371 23.6846C44.8528 23.7465 44.5615 23.6572 44.3271 23.436C44.0928 23.2148 43.9344 22.88 43.8868 22.5049Z" fill="#6C63FF"/>
<path d="M102.773 235.72L102.957 230.269C104.872 228.918 107.007 228.204 109.178 228.19C106.19 231.415 106.564 237.63 104.538 241.966C103.898 243.312 103.037 244.45 102.019 245.298C101 246.145 99.8507 246.678 98.6547 246.859L96.1543 248.88C95.8112 246.355 95.8869 243.763 96.376 241.28C96.8652 238.798 97.7563 236.485 98.9879 234.501C99.6871 233.397 100.489 232.414 101.374 231.574C101.973 233.659 102.773 235.72 102.773 235.72Z" fill="#F2F2F2"/>
<path d="M135.925 249.468C135.926 249.538 135.915 249.607 135.895 249.672C135.875 249.736 135.845 249.795 135.808 249.845C135.77 249.894 135.726 249.933 135.677 249.96C135.628 249.987 135.575 250 135.522 250H26.943C26.836 250 26.7334 249.944 26.6578 249.844C26.5821 249.744 26.5396 249.609 26.5396 249.468C26.5396 249.326 26.5821 249.191 26.6578 249.091C26.7334 248.991 26.836 248.935 26.943 248.935H135.522C135.575 248.935 135.628 248.948 135.677 248.975C135.726 249.002 135.77 249.041 135.808 249.091C135.845 249.14 135.875 249.199 135.895 249.264C135.915 249.328 135.926 249.398 135.925 249.468Z" fill="#CCCCCC"/>
<path d="M27.2047 105.685C25.279 105.634 14.9352 105.242 13.239 105.339C13.1431 104.895 9.92755 110.334 9.84935 110.368C9.79723 110.441 9.75919 110.529 9.7385 110.625C9.7178 110.721 9.71505 110.823 9.73048 110.921C9.74592 111.018 9.77908 111.11 9.82713 111.187C9.87518 111.265 9.9367 111.326 10.0064 111.365C10.1955 111.516 26.871 111.109 27.073 111.162C27.1604 111.16 27.2456 111.126 27.3189 111.063C27.3921 111 27.4504 110.911 27.4869 110.806L27.5984 110.477C27.61 109.913 27.7498 107.032 27.6243 106.54C27.6551 106.447 27.668 106.346 27.6619 106.245C27.6557 106.145 27.6307 106.048 27.5891 105.963C27.5475 105.878 27.4906 105.808 27.4235 105.76C27.3564 105.711 27.2812 105.685 27.2047 105.685Z" fill="#3F3D56"/>
<path opacity="0.17" d="M27.5984 110.476C27.5005 110.787 27.3753 111.177 27.073 111.162L10.1825 111.413C10.1026 111.411 10.0243 111.383 9.95508 111.33C9.88586 111.278 9.82806 111.203 9.78724 111.112C9.74642 111.021 9.72394 110.918 9.72196 110.813C9.71998 110.707 9.73857 110.603 9.77595 110.51L27.5984 110.476Z" fill="black"/>
<path d="M13.318 105.272C13.1361 104.857 8.62048 75.3651 8.24359 75.1185L5.16054 70.1404L4.88499 69.8669C4.5018 69.5891 3.58262 69.777 3.6654 70.5494C4.3897 75.1329 9.04841 101.238 9.1505 105.308L9.7113 110.493C9.7213 110.581 9.7452 110.665 9.78145 110.741C9.8177 110.816 9.86551 110.88 9.92178 110.93C9.97806 110.979 10.0415 111.012 10.1082 111.027C10.1748 111.042 10.2431 111.039 10.3086 111.017C10.4693 110.994 10.6228 110.916 10.7538 110.791C10.8849 110.666 10.989 110.498 11.0559 110.304C11.0979 110.121 13.5291 105.378 13.318 105.272Z" fill="#3F3D56"/>
<path opacity="0.17" d="M5.15979 70.1407L11.0565 110.305C10.8593 110.964 9.93653 111.426 9.72162 110.561C9.71786 110.56 3.67227 70.5742 3.66612 70.5503C3.60171 69.588 4.80645 69.5574 5.15979 70.1407Z" fill="black"/>
<path d="M5.33739 71.783L8.33231 77.2927L11.6937 98.3639L10.1309 100.163L5.33739 71.783Z" fill="#6C63FF"/>
<path d="M25.2716 108.526L26.1001 108.57C26.1131 108.25 26.1531 107.933 26.2196 107.624C26.3443 106.843 26.4559 105.914 25.9391 105.917C25.5885 105.872 25.469 106.459 25.4066 107.096C25.3906 107.577 25.3454 108.055 25.2716 108.526Z" fill="#2F2E41"/>
<path d="M20.5186 107.055L21.077 107.083L21.3471 107.096C21.3419 106.705 21.4796 105.9 21.1445 105.701C21.0912 105.671 21.0337 105.656 20.9757 105.656C20.6614 105.632 20.5679 105.948 20.5394 106.311C20.5212 106.531 20.529 106.764 20.5238 106.945C20.5238 106.983 20.5212 107.021 20.5186 107.055Z" fill="#2F2E41"/>
<path d="M18.8641 106.966L19.4251 106.997L19.6926 107.011C19.6874 106.562 19.8667 105.581 19.3212 105.567C18.8173 105.53 18.8823 106.376 18.8693 106.856C18.8693 106.894 18.8667 106.932 18.8641 106.966Z" fill="#2F2E41"/>
<path d="M17.2097 106.88L17.7681 106.908L18.0382 106.921C18.033 106.476 18.2122 105.495 17.6668 105.482C17.1629 105.441 17.2278 106.287 17.2148 106.771C17.2148 106.808 17.2122 106.846 17.2097 106.88Z" fill="#2F2E41"/>
<path d="M15.5552 106.791L16.1162 106.822L16.3837 106.836C16.3785 106.387 16.5577 105.41 16.0123 105.392C15.5084 105.355 15.5734 106.201 15.5604 106.681C15.5604 106.719 15.5578 106.757 15.5552 106.791Z" fill="#2F2E41"/>
<path d="M13.9007 106.705L14.4591 106.733L14.7292 106.747C14.724 106.335 14.8747 105.475 14.4747 105.327H14.4721C14.435 105.313 14.3965 105.306 14.3578 105.307C14.3107 105.301 14.2632 105.307 14.2176 105.324H14.215C13.8669 105.444 13.9163 106.164 13.9059 106.596C13.9059 106.633 13.9033 106.671 13.9007 106.705Z" fill="#2F2E41"/>
<path d="M23.6015 106.472L24.4301 106.517C24.4301 106.476 24.4301 106.431 24.4327 106.38C24.4532 106.119 24.4567 105.856 24.4431 105.595C24.4145 105.307 24.321 105.081 24.0587 105.074C23.7911 105.053 23.6846 105.279 23.6431 105.571C23.6334 105.62 23.6265 105.671 23.6223 105.722V105.725C23.6015 105.992 23.6145 106.28 23.6015 106.472Z" fill="#2F2E41"/>
<path d="M21.9471 106.383L22.7756 106.428C22.7932 106.134 22.7984 105.838 22.7912 105.543C22.7678 105.242 22.6769 104.995 22.4042 104.988C22.1289 104.964 22.0224 105.211 21.9808 105.516C21.9419 105.811 21.9627 106.164 21.9471 106.383Z" fill="#2F2E41"/>
<path d="M20.2926 106.298L20.5394 106.311L21.1211 106.342C21.1186 106.178 21.1419 105.938 21.1445 105.701C21.1467 105.63 21.145 105.559 21.1393 105.488C21.1186 105.17 21.0328 104.906 20.7497 104.899C20.4614 104.878 20.3601 105.142 20.3238 105.464C20.2874 105.752 20.3082 106.085 20.2926 106.298Z" fill="#2F2E41"/>
<path d="M23.6171 108.44L24.4457 108.481C24.4431 108.036 24.6197 107.055 24.0742 107.041C23.5288 106.997 23.6483 107.991 23.6171 108.44Z" fill="#2F2E41"/>
<path d="M21.9627 108.351L22.7912 108.396C22.7886 107.946 22.9652 106.966 22.4198 106.952C21.8743 106.911 21.9938 107.905 21.9627 108.351Z" fill="#2F2E41"/>
<path d="M20.3082 108.265L21.1367 108.306C21.1341 107.988 21.225 107.398 21.077 107.083C21.0447 107.013 20.9986 106.956 20.9438 106.918C20.8889 106.88 20.8272 106.862 20.7653 106.867C20.6803 106.855 20.5948 106.883 20.5238 106.945C20.2588 107.175 20.3342 107.902 20.3082 108.265Z" fill="#2F2E41"/>
<path d="M18.6537 108.176L19.4823 108.221C19.4797 107.902 19.568 107.316 19.4251 106.997C19.3929 106.926 19.3465 106.868 19.2911 106.829C19.2358 106.791 19.1734 106.773 19.1109 106.778C19.0258 106.765 18.9402 106.793 18.8693 106.856C18.6044 107.093 18.6797 107.816 18.6537 108.176Z" fill="#2F2E41"/>
<path d="M16.9993 108.09L17.8278 108.132C17.8252 107.813 17.9161 107.223 17.7681 106.908C17.7358 106.838 17.6897 106.781 17.6348 106.743C17.5799 106.705 17.5183 106.687 17.4564 106.692C17.3713 106.68 17.2859 106.708 17.2148 106.771C16.9499 107 17.0252 107.727 16.9993 108.09Z" fill="#2F2E41"/>
<path d="M15.3448 108.001L16.1733 108.046C16.1707 107.727 16.259 107.141 16.1162 106.822C16.0842 106.751 16.0379 106.693 15.9824 106.654C15.927 106.615 15.8645 106.597 15.8019 106.603C15.7169 106.59 15.6313 106.618 15.5604 106.681C15.2954 106.918 15.3708 107.641 15.3448 108.001Z" fill="#2F2E41"/>
<path d="M13.6903 107.916L14.5189 107.957C14.5163 107.638 14.6046 107.052 14.4591 106.733C14.4271 106.663 14.3811 106.606 14.3261 106.568C14.2712 106.529 14.2094 106.512 14.1475 106.517C14.0624 106.505 13.9769 106.533 13.9059 106.596C13.641 106.829 13.7163 107.552 13.6903 107.916Z" fill="#2F2E41"/>
</g>
<defs>
<clipPath id="clip0_23_884">
<rect width="173.171" height="250" fill="white"/>
</clipPath>
</defs>
</svg>
